<svg xmlns="http://www.w3.org/2000/svg" xmlns:xlink="http://www.w3.org/1999/xlink" viewBox="0 0 154.42 167.49"><defs><style>.cls-1{fill:none;}.cls-2{clip-path:url(#clip-path);}.cls-3{fill:#196B57;}</style><clipPath id="clip-path" transform="translate(0.02)"><rect class="cls-1" width="154.4" height="167.49"/></clipPath></defs><g id="Layer_2" data-name="Layer 2"><g id="Layer_1-2" data-name="Layer 1"><g class="cls-2"><g id="Group_3339" data-name="Group 3339"><path id="Path_66" data-name="Path 66" class="cls-3" d="M69.45,145.35c0,5.84,0,11.67,0,17.5,0,3.2-1.46,4.63-4.7,4.63q-10.7,0-21.4,0c-3.14,0-4.61-1.45-4.63-4.53,0-2.6.06-5.21,0-7.81a3.78,3.78,0,0,0-.94-2.28c-10.8-10.7-21.56-21.45-32.53-32A15.91,15.91,0,0,1,0,108.41C.12,97.64,0,86.85,0,76.08c0-3,.87-5.53,3.33-7.36A7.7,7.7,0,0,1,15.3,73.3a16.11,16.11,0,0,1,.29,3.1c0,8.07,0,16.14.06,24.21a3.54,3.54,0,0,0,.94,2.27c6.86,7,13.8,13.89,20.7,20.83a4,4,0,0,0,5.47.37,3.81,3.81,0,0,0,.32-5.39l-.19-.19c-2-2.09-4-4.07-6.07-6.09-1.62-1.62-3.29-3.19-4.86-4.85-4.09-4.32-2.72-10.9,2.73-12.87a7,7,0,0,1,7.19,1.15c1.32,1.1,2.5,2.35,3.72,3.57,6.6,6.65,13.18,13.32,19.81,20a13,13,0,0,1,4.08,10.06c-.17,5.31,0,10.62,0,15.94" transform="translate(0.02)"/><path id="Path_67" data-name="Path 67" class="cls-3" d="M85,145.14v-17.5a9.81,9.81,0,0,1,2.43-6.43c1.78-2.11,3.65-4.15,5.6-6.1q9.32-9.36,18.72-18.62a7.66,7.66,0,0,1,10.88,10.79l-.13.13C119,111,115.42,114.48,111.91,118c-1.88,1.92-2,3.67-.6,5.55a3.74,3.74,0,0,0,5.25.63l.26-.22q10.67-10.65,21.26-21.37a3,3,0,0,0,.69-1.91c0-8.28,0-16.56,0-24.84a8.4,8.4,0,0,1,3.24-7.1,7.67,7.67,0,0,1,12,4.72,19.71,19.71,0,0,1,.27,3.25c0,10.68,0,21.35.05,32a15.4,15.4,0,0,1-5,11.91c-11,10.58-21.81,21.35-32.65,32.09a4,4,0,0,0-1,2.41c-.12,2.7,0,5.41,0,8.12a3.88,3.88,0,0,1-3.57,4.16,3.53,3.53,0,0,1-.65,0q-11.17,0-22.34,0A3.87,3.87,0,0,1,85,163.94a3.18,3.18,0,0,1,0-.69c0-6,0-12.08,0-18.12h0" transform="translate(0.02)"/><path id="Path_68" data-name="Path 68" class="cls-3" d="M50.32,40.23H31.37C31.92,23.65,44.8,5.47,63.83,0c-8.4,12.19-12.29,25.69-13.51,40.23" transform="translate(0.02)"/><path id="Path_69" data-name="Path 69" class="cls-3" d="M90.57,0c18.52,5.27,31.84,23,32.48,40.21H104.11C102.88,25.79,99,12.25,90.57,0" transform="translate(0.02)"/><path id="Path_70" data-name="Path 70" class="cls-3" d="M63.77,88.2c-17.13-4.5-31.53-21.71-32.45-40h19c1.21,14.35,5.07,27.88,13.45,40" transform="translate(0.02)"/><path id="Path_71" data-name="Path 71" class="cls-3" d="M104.09,48.12h19.09A44.43,44.43,0,0,1,115,70.7,46.23,46.23,0,0,1,90.47,88.44C99,76.08,102.87,62.6,104.09,48.12" transform="translate(0.02)"/><path id="Path_72" data-name="Path 72" class="cls-3" d="M81.1.18C91,12,95.22,25.41,96.39,40.19H81.1Z" transform="translate(0.02)"/><path id="Path_73" data-name="Path 73" class="cls-3" d="M73.32.71V40.22H58C59.15,25.46,63.45,12,73.32.71" transform="translate(0.02)"/><path id="Path_74" data-name="Path 74" class="cls-3" d="M96.38,48.14C95.22,62.9,91,76.32,81.09,87.64V48.14Z" transform="translate(0.02)"/><path id="Path_75" data-name="Path 75" class="cls-3" d="M58.25,48.07h15V87.5C67,84,57.3,58.83,58.25,48.07" transform="translate(0.02)"/></g></g></g></g></svg>