<svg xmlns="http://www.w3.org/2000/svg" viewBox="0 0 141.72 119.9"><defs><style>.cls-1{fill:#fff;}</style></defs><g id="Layer_2" data-name="Layer 2"><g id="Layer_1-2" data-name="Layer 1"><path class="cls-1" d="M56.64,119.87l-9.43-3.77Q24.37,107,1.51,97.82A2,2,0,0,1,0,95.54Q.06,55.21,0,14.89V13.08l11.5,4.6q21.86,8.76,43.73,17.5a1.87,1.87,0,0,1,1.41,2.06q-.06,40.48,0,81Z"/><path class="cls-1" d="M101,103.67,60.57,119.9v-1.85q0-40.26,0-80.53a2.12,2.12,0,0,1,1.58-2.4c6.38-2.46,12.71-5.06,19.06-7.61.41-.17.83-.3,1.42-.52,0,.66.08,1.18.08,1.71q0,12.48,0,25c0,1.19.12,2.27,1.42,2.7s2-.38,2.68-1.23c3.07-3.6,6.17-7.19,9.47-11l4.81,5c.87.9,1.68,2.08,3.17,1.5s1.28-2.11,1.28-3.4c0-9.33,0-18.67,0-28a1.88,1.88,0,0,1,1.42-2.08c3.38-1.28,6.72-2.66,10.21-4.06V57.64c-11,1.65-19.14,7.15-22.9,17.89S93.4,95.5,101,103.67Z"/><path class="cls-1" d="M115.71,9.4,70.18,27.67c-3.54,1.43-7.09,2.87-10.65,4.24a2.52,2.52,0,0,1-1.69.06Q29.88,20.78,2,9.54a3.72,3.72,0,0,1-.35-.22C4.49,6.26,7.32,3.19,10.26.22c.31-.31,1.3-.19,1.86,0q16.53,6.57,33,13.24c3.87,1.55,7.77,3.07,11.63,4.68a4.43,4.43,0,0,0,3.62,0c14.83-6,29.68-11.9,44.5-17.9a2.12,2.12,0,0,1,2.83.59C110.28,3.73,113,6.47,115.71,9.4ZM58.64,27.48c.51-.17,1-.29,1.46-.48l40.54-16.22c.46-.18,1.13-.34,1.3-.7a3.67,3.67,0,0,0,.52-2.39c-.2-.51-1.32-.81-2.07-.94-.48-.09-1,.29-1.56.49-13,5.19-26,10.41-39,15.55a3.73,3.73,0,0,1-2.53,0c-10-3.94-20-8-30-12q-5-2-10-4a1.93,1.93,0,0,0-2.69.92,2,2,0,0,0,1.17,2.73c.23.11.47.19.7.29L57.06,27C57.57,27.18,58.11,27.31,58.64,27.48Z"/><path class="cls-1" d="M119.08,106.71a22.54,22.54,0,1,1,22.64-22.57A22.53,22.53,0,0,1,119.08,106.71ZM111.22,71h-3.48c-1.71,0-2.55.73-2.62,2.44a52.73,52.73,0,0,0,0,7.22,24,24,0,0,0,12.69,19.55,3,3,0,0,0,2.52.09C130.9,94.7,134.63,83.63,133,72.94a2.05,2.05,0,0,0-2.3-1.9c-1.77,0-3.54-.12-5.29,0-2,.18-3.48-.22-4.47-2.27a1.93,1.93,0,0,0-3.61,0c-1.08,2.16-2.69,2.55-4.78,2.28A12.34,12.34,0,0,0,111.22,71Z"/><path class="cls-1" d="M101.42,44.07c-1.4-1.44-2.49-2.61-3.63-3.72-1.33-1.31-2.31-1.29-3.57.13C92.11,42.84,90,45.26,88,47.64c-.35.41-.72.79-1.35,1.47V47.77c0-7.05,0-14.11,0-21.16a1.55,1.55,0,0,1,1.15-1.76c4.17-1.6,8.3-3.31,12.45-5,.36-.14.74-.23,1.23-.38Z"/><path class="cls-1" d="M111.22,71a12.34,12.34,0,0,1,1.36,0c2.09.27,3.7-.12,4.78-2.28a1.93,1.93,0,0,1,3.61,0c1,2,2.44,2.45,4.47,2.27,1.75-.15,3.52,0,5.29,0a2.05,2.05,0,0,1,2.3,1.9c1.6,10.69-2.13,21.76-12.72,27.4a3,3,0,0,1-2.52-.09A24,24,0,0,1,105.1,80.7a52.73,52.73,0,0,1,0-7.22c.07-1.71.91-2.39,2.62-2.44h3.48Zm7.93,2c-.84,1.83-2.18,2-3.68,1.9-1.76-.08-3.53,0-5.29,0-1.07,0-1.48.36-1.42,1.37.08,1.61.06,3.24.26,4.83A20.06,20.06,0,0,0,118.31,96,1.89,1.89,0,0,0,120,96a20,20,0,0,0,7.71-9.08,23.32,23.32,0,0,0,1.67-11.93c-2.18,0-4.24,0-6.3,0C121.51,75,120,75.06,119.15,73.06Z"/></g></g></svg>