<svg xmlns="http://www.w3.org/2000/svg" viewBox="0 0 93.2 95.2"><defs><style>.cls-1{fill:#fff;}</style></defs><g id="Layer_2" data-name="Layer 2"><g id="Layer_1-2" data-name="Layer 1"><path class="cls-1" d="M62,84.79a51.28,51.28,0,0,1-.3,6.1,5.4,5.4,0,0,1-5.37,4.3q-25.38,0-50.75,0A5.69,5.69,0,0,1,0,89.26c0-4.72,0-9.43,0-14.15V14.26A5.62,5.62,0,0,1,3.8,8.64,6.09,6.09,0,0,1,5.74,8.3c3,0,6.07,0,9.11,0,.13,0,.26,0,.51.06,0,1.11.06,2.21,0,3.3a4.48,4.48,0,0,0,4.75,4.73c7.28-.07,14.57,0,21.85,0a4.4,4.4,0,0,0,4.72-4.69V8.11h8.91c3.92,0,6.23,2.3,6.25,6.22,0,2.65,0,5.3,0,8V43.92c-.38-.1-.69-.16-1-.26a4.09,4.09,0,0,0-4.49,1c-1.56,1.52-3.06,3.1-4.54,4.71a4.3,4.3,0,0,0,0,5.74c.24.29.61.63.59.93,0,.5-.36.81-1,.82A4.17,4.17,0,0,0,47.13,60a3.42,3.42,0,0,0-.13.89c0,2.21,0,4.42,0,6.63a4.28,4.28,0,0,0,4.11,4.16,1.5,1.5,0,0,1,1,.35c.41.45,0,.84-.27,1.21a4.35,4.35,0,0,0,.27,6.35c1.34,1.35,2.68,2.71,4,4,1.59,1.57,3.37,2.25,5.52,1.14A1.7,1.7,0,0,1,62,84.79ZM37.59,26.3H22a3.8,3.8,0,0,0-.83,0A1.45,1.45,0,0,0,20,27.69a1.29,1.29,0,0,0,1,1.44,3.69,3.69,0,0,0,1.05.13H53a4,4,0,0,0,1-.11,1.3,1.3,0,0,0,1.09-1.28,1.46,1.46,0,0,0-1-1.47,2.61,2.61,0,0,0-1-.1ZM37.5,42.89H51.32c.77,0,1.54,0,2.32,0a1.45,1.45,0,0,0,1.47-1.29A1.52,1.52,0,0,0,53.93,40a3.14,3.14,0,0,0-.81-.08H21.92a2.85,2.85,0,0,0-1,.14,1.33,1.33,0,0,0-1,1.53,1.36,1.36,0,0,0,1.22,1.26,4.58,4.58,0,0,0,.83,0Zm-4,10.58H21.67c-1.17,0-1.84.71-1.67,1.73.13.8.78,1.21,2,1.21H45.22a3.8,3.8,0,0,0,.89-.1,1.31,1.31,0,0,0,1.11-1.27,1.39,1.39,0,0,0-.93-1.42,2.85,2.85,0,0,0-1-.15ZM31.82,70h4.06c2.09,0,4.19,0,6.28,0a1.52,1.52,0,0,0,1.53-1.43,1.45,1.45,0,0,0-1.43-1.43c-.22,0-.44,0-.66,0H22a5.37,5.37,0,0,0-.9.06,1.32,1.32,0,0,0-1,2,1.62,1.62,0,0,0,1.59.82C25.1,70,28.46,70,31.82,70Zm-2.5,10.59H21.63c-1.15,0-1.84.79-1.62,1.78a1.62,1.62,0,0,0,1.75,1.19q7.53,0,15.05,0a1.51,1.51,0,1,0,0-3ZM11,67.38c-.39-.72-.71-1.39-1.09-2a1.54,1.54,0,0,0-2.14-.6,1.47,1.47,0,0,0-.54,2.12c.67,1.23,1.36,2.45,2.08,3.66a1.49,1.49,0,0,0,2.54.35c.84-.8,1.64-1.64,2.46-2.46,1.16-1.17,2.34-2.33,3.49-3.51A1.66,1.66,0,0,0,18,62.55c-.67-.69-1.53-.6-2.39.24l-.53.52C13.77,64.65,12.42,66,11,67.38Zm0,13.38c-.41-.72-.75-1.38-1.15-2a1.5,1.5,0,0,0-2.13-.6,1.47,1.47,0,0,0-.48,2.14q1,1.77,2,3.51a1.52,1.52,0,0,0,2.69.35c1.94-1.93,3.87-3.87,5.79-5.8A1.69,1.69,0,0,0,18,75.86c-.63-.65-1.5-.52-2.37.34Zm.06-53.57c-.5-.84-.88-1.57-1.35-2.24a1.43,1.43,0,0,0-2-.43,1.45,1.45,0,0,0-.58,2c.68,1.26,1.39,2.5,2.14,3.72a1.63,1.63,0,0,0,2.67.27c.62-.59,1.21-1.21,1.81-1.81,1.37-1.37,2.74-2.73,4.09-4.11A1.63,1.63,0,0,0,18,22.23a1.5,1.5,0,0,0-2.2.2c-.24.22-.47.46-.7.7ZM11,54,10.43,53c-.18-.34-.34-.7-.54-1a1.52,1.52,0,1,0-2.63,1.52c.65,1.15,1.31,2.3,2,3.43s1.67,1.39,2.74.33,2.16-2.13,3.23-3.21c.9-.89,1.81-1.78,2.7-2.69a1.35,1.35,0,0,0,.38-1.65,1.83,1.83,0,0,0-1.18-.86,2.21,2.21,0,0,0-1.43.61C14.13,50.89,12.63,52.43,11,54Zm0-13.31c-.45-.84-.8-1.55-1.21-2.23a1.51,1.51,0,0,0-2.07-.61A1.48,1.48,0,0,0,7.23,40c.67,1.2,1.34,2.4,2.06,3.58a1.62,1.62,0,0,0,2.62.33q3-3,6-6a1.41,1.41,0,0,0,0-2.13,1.46,1.46,0,0,0-2.08.08c-.66.63-1.3,1.28-1.94,1.93Z"/><path class="cls-1" d="M62.66,79.81c-.67.63-1.34,1.29-2,1.91-.87.77-1.4.76-2.23,0C57,80.32,55.65,79,54.3,77.58a1.53,1.53,0,0,1-.08-2.29c.46-.58,1-1.1,1.44-1.7a1.05,1.05,0,0,0,.1-.85c-.4-1.11-.89-2.19-1.3-3.3a.79.79,0,0,0-.85-.58c-.79,0-1.59-.06-2.39-.14A1.21,1.21,0,0,1,50,67.38c0-2.07,0-4.14,0-6.21a1.17,1.17,0,0,1,1.13-1.28,13.72,13.72,0,0,1,2.22-.13,1.14,1.14,0,0,0,1.28-1A28,28,0,0,1,55.75,56a.8.8,0,0,0-.14-1.08c-.54-.55-1-1.15-1.52-1.75a1.26,1.26,0,0,1,.06-2c1.47-1.46,3-2.89,4.47-4.31a1.27,1.27,0,0,1,2,0c.61.52,1.15,1.12,1.78,1.61a1,1,0,0,0,.83.12c1.11-.41,2.18-.92,3.28-1.34a.7.7,0,0,0,.57-.75c0-.78,0-1.55.12-2.32a1.43,1.43,0,0,1,1.5-1.44c2,0,3.92,0,5.87,0a1.37,1.37,0,0,1,1.52,1.41c.08.74.09,1.49.11,2.23a.84.84,0,0,0,.64.91c1.24.45,2.46,1,3.78,1.49.63-.59,1.32-1.25,2-1.89s1.38-.76,2.21,0c1.38,1.36,2.74,2.72,4.1,4.1a1.56,1.56,0,0,1,0,2.29c-.31.35-.64.68-1,1s-.59.66-.89,1c.54,1.36,1.06,2.71,1.63,4a.89.89,0,0,0,.66.34c.79.08,1.6.06,2.39.15a1.32,1.32,0,0,1,1.36,1.46q0,3,0,6c0,1-.46,1.38-1.43,1.47-.74.06-1.49.11-2.23.13a.76.76,0,0,0-.84.58c-.41,1.11-.88,2.19-1.37,3.27a.71.71,0,0,0,.16.93c.59.58,1.15,1.19,1.69,1.81a1.21,1.21,0,0,1,0,1.9c-1.42,1.47-2.86,2.91-4.33,4.34a1.49,1.49,0,0,1-2.16,0c-.6-.53-1.16-1.11-1.78-1.61A.92.92,0,0,0,80.1,80c-1.11.42-2.18.92-3.3,1.32a.82.82,0,0,0-.62.9c0,.74,0,1.49-.11,2.23-.11.94-.51,1.38-1.43,1.4q-3,.06-6,0a1.36,1.36,0,0,1-1.42-1.42c-.08-.93-.12-1.87-.18-2.82ZM79.47,64.35a8,8,0,0,0-7.92-8.06,8,8,0,1,0-.11,16A8,8,0,0,0,79.47,64.35Z"/><path class="cls-1" d="M30.92,13.5H20.33c-1.53,0-1.9-.37-1.91-1.91,0-2.1,0-4.19,0-6.29,0-1.46.47-1.93,1.94-1.93,1.76,0,3.53,0,5.29,0a.87.87,0,0,0,.92-.58A4.82,4.82,0,0,1,31,0a4.44,4.44,0,0,1,4.33,2.76,1.16,1.16,0,0,0,1.31.78c1.65,0,3.3,0,5,0,1.5,0,1.92.44,1.93,1.91v6.12c0,1.57-.38,1.93-2,1.94Z"/></g></g></svg>